Coordinates
version=1
nRows=31
nColumns=38
inDegrees=no

Units are S.I. units (second, meters, Newtons, ...)
If the header above contains a line with 'inDegrees', this indicates whether rotational values are in degrees (yes) or radians (no).

endheader
time	pelvis_tilt	pelvis_list	pelvis_rotation	pelvis_tx	pelvis_ty	pelvis_tz	hip_flexion_r	hip_adduction_r	hip_rotation_r	knee_angle_r	ankle_angle_r	subtalar_angle_r	mtp_angle_r	hip_flexion_l	hip_adduction_l	hip_rotation_l	knee_angle_l	ankle_angle_l	subtalar_angle_l	mtp_angle_l	lumbar_extension	lumbar_bending	lumbar_rotation	arm_flex_r	arm_add_r	arm_rot_r	elbow_flex_r	pro_sup_r	wrist_flex_r	wrist_dev_r	arm_flex_l	arm_add_l	arm_rot_l	elbow_flex_l	pro_sup_l	wrist_flex_l	wrist_dev_l
72	0.412591	1.51234	1.15636	0.676073	0.861744	1.0502	0.154507	-0.0766566	-0.319327	0.425085	-0.301215	0	0	0.069136	-0.0989134	-0.379943	0.256212	-0.41083	0	0	0.0298792	0.0787815	-0.248064	0.231586	-0.226082	0.239283	0	1.5708	0	0	-0.318002	-0.262449	-0.0717373	0.798456	1.38638	0	0
72.01	0.998759	1.50388	0.574202	0.674355	0.862105	1.05661	0.149579	-0.0887855	-0.517923	0.499838	-0.33795	0	0	0.0415502	-0.13134	-0.379553	0.235743	-0.433098	0	0	0.0105404	0.12027	-0.239564	0.228114	-0.242066	0.232507	0	1.5708	0	0	-0.279183	-0.247634	-0.0515435	0.75431	1.38468	0	0
72.02	0.535252	1.51388	1.0389	0.675509	0.864088	1.05273	0.128878	-0.0674362	-0.328651	0.388274	-0.320012	0	0	0.0453507	-0.100576	-0.383863	0.220164	-0.442403	0	0	0.0381624	0.0756457	-0.257256	0.218018	-0.224857	0.250873	0	1.5708	0	0	-0.326715	-0.261239	-0.0748628	0.799274	1.36724	0	0
72.03	0.574584	1.51282	1.00287	0.675214	0.865259	1.05358	0.120202	-0.0630815	-0.333372	0.372914	-0.326021	0	0	0.0364879	-0.100994	-0.38441	0.203639	-0.450575	0	0	0.0452999	0.0734993	-0.26118	0.209559	-0.224559	0.251055	0	1.5708	0	0	-0.330786	-0.260992	-0.0751104	0.799	1.36251	0	0
72.04	0.609981	1.51143	0.970784	0.674964	0.86636	1.05426	0.110915	-0.0589583	-0.337608	0.356959	-0.33145	0	0	0.0283347	-0.101762	-0.384388	0.188025	-0.458288	0	0	0.05278	0.0714472	-0.265322	0.2012	-0.224262	0.252618	0	1.5708	0	0	-0.334919	-0.261169	-0.0744604	0.798536	1.35783	0	0
72.05	0.640465	1.50961	0.944081	0.674698	0.867378	1.05478	0.10152	-0.0550856	-0.342439	0.341751	-0.336343	0	0	0.0211199	-0.102874	-0.383648	0.17319	-0.46561	0	0	0.0606269	0.0694394	-0.270037	0.192951	-0.223732	0.255449	0	1.5708	0	0	-0.338878	-0.261643	-0.0731108	0.797823	1.35271	0	0
72.06	0.664773	1.50755	0.92437	0.674436	0.868395	1.05519	0.093161	-0.050938	-0.350292	0.327471	-0.34112	0	0	0.0146373	-0.103802	-0.381747	0.158507	-0.472642	0	0	0.0690454	0.0668995	-0.275624	0.1844	-0.222689	0.260052	0	1.5708	0	0	-0.343224	-0.26268	-0.0712066	0.797146	1.34718	0	0
72.07	0.660146	1.50586	0.934345	0.674302	0.869425	1.0552	0.0847987	-0.0503427	-0.357146	0.310594	-0.346086	0	0	0.00944873	-0.103263	-0.379056	0.144719	-0.47926	0	0	0.078779	0.0617961	-0.281835	0.175307	-0.220558	0.267312	0	1.5708	0	0	-0.348803	-0.265033	-0.069058	0.797682	1.34151	0	0
72.08	0.692551	1.5039	0.906156	0.674117	0.870216	1.0556	0.0771187	-0.0440531	-0.363539	0.29767	-0.349973	0	0	0.00290423	-0.104936	-0.376445	0.130873	-0.486022	0	0	0.0857227	0.0599104	-0.28662	0.167334	-0.219163	0.277965	0	1.5708	0	0	-0.350995	-0.266683	-0.0649166	0.795347	1.33581	0	0
72.09	0.66965	1.50405	0.932749	0.674236	0.870985	1.05542	0.0686663	-0.0464475	-0.367963	0.281276	-0.354537	0	0	-0.00297796	-0.102414	-0.374325	0.117554	-0.492286	0	0	0.0938634	0.052495	-0.290775	0.158763	-0.215667	0.293309	0	1.5708	0	0	-0.355968	-0.270637	-0.061666	0.796284	1.33012	0	0
72.1	0.665405	1.50407	0.941503	0.674296	0.87175	1.05548	0.0602002	-0.0458567	-0.374909	0.267401	-0.35796	0	0	-0.00922979	-0.101072	-0.370943	0.104487	-0.498711	0	0	0.101137	0.0467507	-0.294546	0.149788	-0.212834	0.310469	0	1.55146	0	0	-0.358112	-0.274157	-0.0565947	0.793492	1.32485	0	0
72.11	0.699293	1.50259	0.9121	0.673933	0.872473	1.05581	0.054635	-0.0386149	-0.382036	0.2594	-0.360923	0	0	-0.01588	-0.10246	-0.366833	0.0911703	-0.504886	0	0	0.107005	0.0455398	-0.298319	0.141775	-0.212129	0.328871	0	1.52629	0	0	-0.357281	-0.275542	-0.0499834	0.787459	1.31962	0	0
72.12	0.704283	1.50038	0.911143	0.673823	0.873113	1.05578	0.0462442	-0.0348831	-0.384753	0.2411	-0.365829	0	0	-0.0204672	-0.102856	-0.361739	0.078207	-0.510262	0	0	0.114571	0.0425875	-0.301893	0.133437	-0.210477	0.349394	0	1.50022	0	0	-0.358071	-0.27791	-0.0441174	0.783334	1.3141	0	0
72.13	0.700464	1.49871	0.91902	0.673713	0.873725	1.05559	0.0395927	-0.0320233	-0.387844	0.226209	-0.369725	0	0	-0.0247833	-0.102457	-0.356995	0.066039	-0.514962	0	0	0.121765	0.0387168	-0.30537	0.12525	-0.208566	0.371646	0	1.47279	0	0	-0.359168	-0.280692	-0.0383501	0.780188	1.3084	0	0
72.14	0.689324	1.49697	0.933808	0.673708	0.874361	1.05532	0.0331133	-0.0293341	-0.389597	0.210932	-0.373189	0	0	-0.0286418	-0.101815	-0.351737	0.0543476	-0.519043	0	0	0.12927	0.0343804	-0.308431	0.117007	-0.206442	0.394717	0	1.4431	0	0	-0.360949	-0.283838	-0.0325916	0.777637	1.30258	0	0
72.15	0.669156	1.49492	0.957224	0.673736	0.875007	1.05493	0.0279903	-0.0271553	-0.391261	0.196492	-0.37619	0	0	-0.0316776	-0.100955	-0.345464	0.0432641	-0.522379	0	0	0.137249	0.029583	-0.31108	0.108791	-0.204155	0.418735	0	1.41142	0	0	-0.363245	-0.287227	-0.0266916	0.77573	1.29666	0	0
72.16	0.648267	1.49272	0.981194	0.673743	0.875592	1.05443	0.0234986	-0.0251913	-0.392911	0.18258	-0.378578	0	0	-0.0339392	-0.100059	-0.339449	0.0331368	-0.524803	0	0	0.144914	0.024944	-0.313535	0.101042	-0.202039	0.443927	0	1.37769	0	0	-0.365161	-0.290813	-0.0200657	0.773821	1.29063	0	0
72.17	0.642071	1.49083	0.990039	0.673595	0.875954	1.05392	0.0188124	-0.0229314	-0.392837	0.170247	-0.379985	0	0	-0.0363117	-0.0997967	-0.334331	0.0242268	-0.526133	0	0	0.150672	0.0219567	-0.315531	0.0947126	-0.20091	0.470952	0	1.34222	0	0	-0.365429	-0.294215	-0.0119425	0.77147	1.28426	0	0
72.18	0.636883	1.48897	0.997449	0.673411	0.876176	1.05338	0.0156203	-0.0212037	-0.392477	0.160468	-0.380408	0	0	-0.0377281	-0.1	-0.330164	0.0175386	-0.526392	0	0	0.155837	0.0195934	-0.316897	0.088851	-0.20051	0.499647	0	1.3048	0	0	-0.364661	-0.297659	-0.00236412	0.76838	1.27744	0	0
72.19	0.630409	1.48723	1.00602	0.673245	0.876331	1.05285	0.0134473	-0.0199893	-0.392145	0.15313	-0.379706	0	0	-0.0380419	-0.100567	-0.326785	0.013264	-0.525703	0	0	0.160626	0.0172752	-0.317499	0.0827638	-0.200496	0.52995	0	1.26528	0	0	-0.363142	-0.301431	0.00837757	0.765066	1.26992	0	0
72.2	0.622787	1.48564	1.01541	0.673082	0.876448	1.05234	0.0120517	-0.0193605	-0.392186	0.148002	-0.377733	0	0	-0.037471	-0.101308	-0.324217	0.0109278	-0.524157	0	0	0.164501	0.0150183	-0.316533	0.0758509	-0.201605	0.56144	0	1.22311	0	0	-0.360726	-0.305655	0.0201231	0.762451	1.26148	0	0
72.21	0.615523	1.48492	1.02405	0.672815	0.876491	1.0518	0.013155	-0.0200807	-0.395983	0.14944	-0.378673	0	0	-0.0372485	-0.101483	-0.321467	0.0091304	-0.525133	0	0	0.165377	0.0124336	-0.320078	0.0794806	-0.198442	0.529377	0	1.2655	0	0	-0.36241	-0.302665	0.00935996	0.762228	1.27043	0	0
72.22	0.608886	1.48318	1.03196	0.672556	0.876458	1.05138	0.0142511	-0.0200812	-0.398075	0.148382	-0.378988	0	0	-0.0354265	-0.102343	-0.317603	0.00831189	-0.525286	0	0	0.16696	0.0108202	-0.322078	0.0816239	-0.19678	0.498384	0	1.30515	0	0	-0.362429	-0.299894	0.00107266	0.76053	1.27853	0	0
72.23	0.606088	1.48058	1.03562	0.672339	0.876268	1.05113	0.0142398	-0.0187149	-0.395586	0.142557	-0.380221	0	0	-0.0319711	-0.104151	-0.315189	0.0093214	-0.525043	0	0	0.168977	0.0106677	-0.322975	0.0835959	-0.195905	0.468654	0	1.34218	0	0	-0.360415	-0.2972	-0.004422	0.756095	1.28606	0	0
72.24	0.595769	1.47829	1.0464	0.672111	0.875971	1.0509	0.0161461	-0.0183333	-0.3927	0.140247	-0.381424	0	0	-0.0275133	-0.105227	-0.316164	0.012169	-0.524464	0	0	0.170942	0.0102035	-0.323081	0.0857601	-0.195291	0.440398	0	1.37671	0	0	-0.357784	-0.294979	-0.00817509	0.751036	1.29279	0	0
72.25	0.58638	1.47651	1.05521	0.671993	0.875694	1.0508	0.0191136	-0.0184557	-0.391534	0.140628	-0.382469	0	0	-0.0239037	-0.105972	-0.31751	0.014986	-0.523713	0	0	0.17243	0.00985919	-0.321968	0.0878701	-0.194808	0.41351	0	1.40887	0	0	-0.355254	-0.293125	-0.0109367	0.746328	1.29839	0	0
72.26	0.579935	1.47539	1.06041	0.671943	0.875432	1.05082	0.0217592	-0.0187406	-0.390356	0.142042	-0.383253	0	0	-0.0215587	-0.106403	-0.318324	0.0171215	-0.523087	0	0	0.173079	0.00975258	-0.320174	0.0900848	-0.194421	0.388035	0	1.43885	0	0	-0.353041	-0.291571	-0.0130997	0.74242	1.30284	0	0
72.27	0.575966	1.47495	1.06249	0.671908	0.875161	1.05094	0.0235996	-0.0191066	-0.388501	0.143402	-0.383981	0	0	-0.0201918	-0.106107	-0.319039	0.0186234	-0.522633	0	0	0.172702	0.0100005	-0.318013	0.092771	-0.194233	0.36437	0	1.4672	0	0	-0.350976	-0.290132	-0.0147543	0.739061	1.30621	0	0
72.28	0.573354	1.47468	1.06288	0.671874	0.874811	1.0511	0.0253219	-0.0194589	-0.387306	0.144654	-0.384868	0	0	-0.0189096	-0.105678	-0.320611	0.0203012	-0.522274	0	0	0.171632	0.010718	-0.31575	0.0959284	-0.1943	0.34274	0	1.49442	0	0	-0.348849	-0.288714	-0.0160295	0.736219	1.30851	0	0
72.29	0.572193	1.47448	1.06178	0.671797	0.874407	1.05126	0.027009	-0.019788	-0.386547	0.145923	-0.385887	0	0	-0.0178476	-0.105293	-0.32262	0.0217288	-0.522003	0	0	0.170114	0.0118466	-0.313674	0.0993497	-0.19454	0.322548	0	1.52025	0	0	-0.346906	-0.287249	-0.0170373	0.733989	1.31019	0	0
72.3	0.571722	1.47436	1.06016	0.671693	0.874019	1.05142	0.028562	-0.0201532	-0.385892	0.147324	-0.386843	0	0	-0.0170995	-0.104911	-0.324705	0.0227054	-0.521866	0	0	0.168378	0.0131555	-0.31209	0.102885	-0.194834	0.303486	0	1.54464	0	0	-0.345455	-0.285823	-0.017898	0.732369	1.31153	0	0
